<svg width="239" height="50" viewBox="0 0 239 50" fill="none" xmlns="http://www.w3.org/2000/svg">
<path d="M52 27L15.4074 27L-1.83731e-07 42.4074L36.5926 42.4074L52 27Z" fill="#8FDF50"/>
<path d="M52 26.4074L15.4074 26.4074L1.34696e-06 11L36.5926 11L52 26.4074Z" fill="#2D2D2D"/>
<path d="M65.6961 37.48C66.1201 37.48 66.5161 37.532 66.8841 37.636C67.2601 37.732 67.5841 37.88 67.8561 38.08C68.1361 38.28 68.3561 38.528 68.5161 38.824C68.6761 39.12 68.7561 39.46 68.7561 39.844C68.7561 40.244 68.6721 40.592 68.5041 40.888C68.3361 41.184 68.1081 41.432 67.8201 41.632C68.1801 41.84 68.4641 42.112 68.6721 42.448C68.8881 42.776 68.9961 43.168 68.9961 43.624C68.9961 44.032 68.9081 44.392 68.7321 44.704C68.5641 45.008 68.3281 45.268 68.0241 45.484C67.7281 45.692 67.3761 45.852 66.9681 45.964C66.5681 46.068 66.1401 46.12 65.6841 46.12C65.1401 46.12 64.6681 46.044 64.2681 45.892C63.8681 45.732 63.5321 45.54 63.2601 45.316C62.9961 45.084 62.7961 44.84 62.6601 44.584C62.5241 44.32 62.4521 44.088 62.4441 43.888C62.4361 43.816 62.4601 43.756 62.5161 43.708C62.5721 43.652 62.6361 43.624 62.7081 43.624H63.2601C63.4041 43.624 63.5081 43.712 63.5721 43.888C63.6201 44.032 63.7001 44.172 63.8121 44.308C63.9321 44.444 64.0801 44.568 64.2561 44.68C64.4321 44.784 64.6401 44.872 64.8801 44.944C65.1201 45.008 65.3881 45.04 65.6841 45.04C65.9801 45.04 66.2601 45.012 66.5241 44.956C66.7881 44.892 67.0161 44.8 67.2081 44.68C67.4081 44.56 67.5641 44.412 67.6761 44.236C67.7961 44.06 67.8561 43.856 67.8561 43.624C67.8561 43.4 67.8001 43.204 67.6881 43.036C67.5841 42.86 67.4361 42.712 67.2441 42.592C67.0601 42.472 66.8401 42.38 66.5841 42.316C66.3361 42.252 66.0681 42.216 65.7801 42.208H65.0721C64.9841 42.208 64.9081 42.176 64.8441 42.112C64.7801 42.048 64.7481 41.972 64.7481 41.884V41.452C64.7481 41.364 64.7801 41.288 64.8441 41.224C64.9081 41.16 64.9841 41.128 65.0721 41.128H65.6961C65.9601 41.128 66.2081 41.1 66.4401 41.044C66.6721 40.988 66.8761 40.908 67.0521 40.804C67.2281 40.692 67.3641 40.556 67.4601 40.396C67.5641 40.236 67.6161 40.052 67.6161 39.844C67.6161 39.636 67.5641 39.452 67.4601 39.292C67.3641 39.132 67.2281 39 67.0521 38.896C66.8761 38.784 66.6721 38.7 66.4401 38.644C66.2081 38.588 65.9601 38.56 65.6961 38.56C65.4321 38.56 65.1921 38.596 64.9761 38.668C64.7681 38.732 64.5841 38.82 64.4241 38.932C64.2721 39.036 64.1441 39.156 64.0401 39.292C63.9441 39.428 63.8721 39.568 63.8241 39.712C63.7601 39.888 63.6561 39.976 63.5121 39.976H62.9601C62.8881 39.976 62.8241 39.952 62.7681 39.904C62.7121 39.848 62.6881 39.784 62.6961 39.712C62.7041 39.512 62.7681 39.284 62.8881 39.028C63.0161 38.764 63.2001 38.52 63.4401 38.296C63.6881 38.064 63.9961 37.872 64.3641 37.72C64.7401 37.56 65.1841 37.48 65.6961 37.48ZM69.8932 44.428C69.8932 44.108 69.9572 43.828 70.0852 43.588C70.2132 43.348 70.3892 43.144 70.6132 42.976C70.8372 42.808 71.0972 42.672 71.3932 42.568C71.6972 42.464 72.0172 42.384 72.3532 42.328L74.0452 42.052V41.896C74.0452 41.488 73.9092 41.184 73.6372 40.984C73.3732 40.776 73.0412 40.672 72.6412 40.672C72.2892 40.672 72.0212 40.736 71.8372 40.864C71.6612 40.992 71.5092 41.144 71.3812 41.32C71.3332 41.384 71.2812 41.428 71.2252 41.452C71.1692 41.476 71.0932 41.488 70.9972 41.488H70.6372C70.5492 41.488 70.4692 41.456 70.3972 41.392C70.3332 41.328 70.3052 41.252 70.3132 41.164C70.3292 40.988 70.3972 40.808 70.5172 40.624C70.6452 40.44 70.8132 40.276 71.0212 40.132C71.2372 39.988 71.4812 39.872 71.7532 39.784C72.0332 39.688 72.3292 39.64 72.6412 39.64C73.0012 39.64 73.3332 39.692 73.6372 39.796C73.9492 39.9 74.2132 40.052 74.4292 40.252C74.6532 40.452 74.8252 40.7 74.9452 40.996C75.0732 41.292 75.1372 41.632 75.1372 42.016V45.676C75.1372 45.764 75.1052 45.84 75.0412 45.904C74.9772 45.968 74.9012 46 74.8132 46H74.3692C74.2812 46 74.2052 45.968 74.1412 45.904C74.0772 45.84 74.0452 45.764 74.0452 45.676V45.184C73.9732 45.336 73.8612 45.472 73.7092 45.592C73.5572 45.704 73.3812 45.8 73.1812 45.88C72.9892 45.96 72.7852 46.02 72.5692 46.06C72.3612 46.1 72.1652 46.12 71.9812 46.12C71.6692 46.12 71.3812 46.076 71.1172 45.988C70.8612 45.9 70.6412 45.784 70.4572 45.64C70.2812 45.488 70.1412 45.308 70.0372 45.1C69.9412 44.892 69.8932 44.668 69.8932 44.428ZM72.1012 45.088C72.3892 45.088 72.6532 45.044 72.8932 44.956C73.1332 44.868 73.3372 44.748 73.5052 44.596C73.6812 44.436 73.8132 44.248 73.9012 44.032C73.9972 43.816 74.0452 43.576 74.0452 43.312V43.012L72.6292 43.24C72.1252 43.32 71.7252 43.448 71.4292 43.624C71.1332 43.8 70.9852 44.028 70.9852 44.308C70.9852 44.396 71.0052 44.484 71.0452 44.572C71.0852 44.66 71.1492 44.744 71.2372 44.824C71.3252 44.904 71.4372 44.968 71.5732 45.016C71.7172 45.064 71.8932 45.088 72.1012 45.088ZM77.8 42.16L80.296 39.964C80.344 39.924 80.404 39.88 80.476 39.832C80.556 39.784 80.652 39.76 80.764 39.76H81.34C81.42 39.76 81.488 39.788 81.544 39.844C81.6 39.9 81.628 39.968 81.628 40.048C81.628 40.088 81.62 40.128 81.604 40.168C81.596 40.2 81.56 40.24 81.496 40.288L78.592 42.832L81.784 45.484C81.864 45.548 81.904 45.624 81.904 45.712C81.904 45.792 81.876 45.86 81.82 45.916C81.764 45.972 81.696 46 81.616 46H80.992C80.872 46 80.768 45.976 80.68 45.928C80.6 45.88 80.54 45.836 80.5 45.796L77.8 43.552V45.676C77.8 45.764 77.768 45.84 77.704 45.904C77.64 45.968 77.564 46 77.476 46H77.032C76.944 46 76.868 45.968 76.804 45.904C76.74 45.84 76.708 45.764 76.708 45.676V40.084C76.708 39.996 76.74 39.92 76.804 39.856C76.868 39.792 76.944 39.76 77.032 39.76H77.476C77.564 39.76 77.64 39.792 77.704 39.856C77.768 39.92 77.8 39.996 77.8 40.084V42.16ZM82.2598 44.428C82.2598 44.108 82.3238 43.828 82.4518 43.588C82.5798 43.348 82.7558 43.144 82.9798 42.976C83.2038 42.808 83.4638 42.672 83.7598 42.568C84.0638 42.464 84.3838 42.384 84.7198 42.328L86.4118 42.052V41.896C86.4118 41.488 86.2758 41.184 86.0038 40.984C85.7398 40.776 85.4078 40.672 85.0078 40.672C84.6558 40.672 84.3878 40.736 84.2038 40.864C84.0278 40.992 83.8758 41.144 83.7478 41.32C83.6998 41.384 83.6478 41.428 83.5918 41.452C83.5358 41.476 83.4598 41.488 83.3638 41.488H83.0038C82.9158 41.488 82.8358 41.456 82.7638 41.392C82.6998 41.328 82.6718 41.252 82.6798 41.164C82.6958 40.988 82.7638 40.808 82.8838 40.624C83.0118 40.44 83.1798 40.276 83.3878 40.132C83.6038 39.988 83.8478 39.872 84.1198 39.784C84.3998 39.688 84.6958 39.64 85.0078 39.64C85.3678 39.64 85.6998 39.692 86.0038 39.796C86.3158 39.9 86.5798 40.052 86.7958 40.252C87.0198 40.452 87.1918 40.7 87.3118 40.996C87.4398 41.292 87.5038 41.632 87.5038 42.016V45.676C87.5038 45.764 87.4718 45.84 87.4078 45.904C87.3438 45.968 87.2678 46 87.1798 46H86.7358C86.6478 46 86.5718 45.968 86.5078 45.904C86.4438 45.84 86.4118 45.764 86.4118 45.676V45.184C86.3398 45.336 86.2278 45.472 86.0758 45.592C85.9238 45.704 85.7478 45.8 85.5478 45.88C85.3558 45.96 85.1518 46.02 84.9358 46.06C84.7278 46.1 84.5318 46.12 84.3478 46.12C84.0358 46.12 83.7478 46.076 83.4838 45.988C83.2278 45.9 83.0078 45.784 82.8238 45.64C82.6478 45.488 82.5078 45.308 82.4038 45.1C82.3078 44.892 82.2598 44.668 82.2598 44.428ZM84.4678 45.088C84.7558 45.088 85.0198 45.044 85.2598 44.956C85.4998 44.868 85.7038 44.748 85.8718 44.596C86.0478 44.436 86.1798 44.248 86.2678 44.032C86.3638 43.816 86.4118 43.576 86.4118 43.312V43.012L84.9958 43.24C84.4918 43.32 84.0918 43.448 83.7958 43.624C83.4998 43.8 83.3518 44.028 83.3518 44.308C83.3518 44.396 83.3718 44.484 83.4118 44.572C83.4518 44.66 83.5158 44.744 83.6038 44.824C83.6918 44.904 83.8038 44.968 83.9398 45.016C84.0838 45.064 84.2598 45.088 84.4678 45.088ZM89.7466 44.512C89.8826 44.768 90.0746 44.928 90.3226 44.992C90.5786 45.056 90.8666 45.088 91.1866 45.088C91.3866 45.088 91.5706 45.076 91.7386 45.052C91.9146 45.02 92.0666 44.972 92.1946 44.908C92.3226 44.844 92.4226 44.756 92.4946 44.644C92.5746 44.532 92.6146 44.396 92.6146 44.236C92.6146 43.932 92.4866 43.716 92.2306 43.588C91.9746 43.452 91.6586 43.384 91.2826 43.384H90.3466C90.2586 43.384 90.1826 43.352 90.1186 43.288C90.0546 43.224 90.0226 43.148 90.0226 43.06V42.676C90.0226 42.588 90.0546 42.512 90.1186 42.448C90.1826 42.384 90.2586 42.352 90.3466 42.352H91.2946C91.6306 42.352 91.9146 42.284 92.1466 42.148C92.3866 42.004 92.5066 41.792 92.5066 41.512C92.5066 41.216 92.3786 41.004 92.1226 40.876C91.8666 40.74 91.5546 40.672 91.1866 40.672C90.8266 40.672 90.5466 40.728 90.3466 40.84C90.1466 40.944 89.9866 41.12 89.8666 41.368C89.8266 41.456 89.7706 41.532 89.6986 41.596C89.6346 41.66 89.5586 41.692 89.4706 41.692H89.1106C89.0226 41.692 88.9426 41.66 88.8706 41.596C88.8066 41.532 88.7786 41.456 88.7866 41.368C88.7946 41.152 88.8506 40.94 88.9546 40.732C89.0666 40.524 89.2226 40.34 89.4226 40.18C89.6226 40.012 89.8706 39.88 90.1666 39.784C90.4626 39.688 90.8026 39.64 91.1866 39.64C91.5226 39.64 91.8346 39.68 92.1226 39.76C92.4186 39.832 92.6746 39.948 92.8906 40.108C93.1066 40.26 93.2786 40.452 93.4066 40.684C93.5346 40.916 93.5986 41.192 93.5986 41.512C93.5986 41.792 93.5466 42.04 93.4426 42.256C93.3466 42.472 93.2106 42.66 93.0346 42.82C93.2426 42.972 93.4066 43.164 93.5266 43.396C93.6466 43.62 93.7066 43.9 93.7066 44.236C93.7066 44.588 93.6386 44.884 93.5026 45.124C93.3746 45.364 93.1946 45.56 92.9626 45.712C92.7386 45.856 92.4706 45.96 92.1586 46.024C91.8546 46.088 91.5306 46.12 91.1866 46.12C90.7626 46.12 90.3946 46.076 90.0826 45.988C89.7786 45.9 89.5226 45.784 89.3146 45.64C89.1066 45.488 88.9466 45.316 88.8346 45.124C88.7306 44.924 88.6746 44.72 88.6666 44.512C88.6586 44.424 88.6866 44.348 88.7506 44.284C88.8226 44.22 88.9026 44.188 88.9906 44.188H89.3506C89.4386 44.188 89.5106 44.212 89.5666 44.26C89.6226 44.3 89.6826 44.384 89.7466 44.512ZM101.241 36.928C101.281 36.84 101.341 36.76 101.421 36.688C101.501 36.608 101.617 36.568 101.769 36.568H102.165C102.237 36.568 102.297 36.596 102.345 36.652C102.401 36.7 102.429 36.76 102.429 36.832C102.429 36.864 102.421 36.9 102.405 36.94L98.3486 46.648C98.3166 46.728 98.2606 46.808 98.1806 46.888C98.1006 46.968 97.9806 47.008 97.8206 47.008H97.4606C97.3886 47.008 97.3246 46.98 97.2686 46.924C97.2206 46.876 97.1966 46.816 97.1966 46.744C97.1966 46.712 97.2046 46.676 97.2206 46.636L101.241 36.928ZM105.758 44.428C105.758 44.108 105.822 43.828 105.95 43.588C106.078 43.348 106.254 43.144 106.478 42.976C106.702 42.808 106.962 42.672 107.258 42.568C107.562 42.464 107.882 42.384 108.218 42.328L109.91 42.052V41.896C109.91 41.488 109.774 41.184 109.502 40.984C109.238 40.776 108.906 40.672 108.506 40.672C108.154 40.672 107.886 40.736 107.702 40.864C107.526 40.992 107.374 41.144 107.246 41.32C107.198 41.384 107.146 41.428 107.09 41.452C107.034 41.476 106.958 41.488 106.862 41.488H106.502C106.414 41.488 106.334 41.456 106.262 41.392C106.198 41.328 106.17 41.252 106.178 41.164C106.194 40.988 106.262 40.808 106.382 40.624C106.51 40.44 106.678 40.276 106.886 40.132C107.102 39.988 107.346 39.872 107.618 39.784C107.898 39.688 108.194 39.64 108.506 39.64C108.866 39.64 109.198 39.692 109.502 39.796C109.814 39.9 110.078 40.052 110.294 40.252C110.518 40.452 110.69 40.7 110.81 40.996C110.938 41.292 111.002 41.632 111.002 42.016V45.676C111.002 45.764 110.97 45.84 110.906 45.904C110.842 45.968 110.766 46 110.678 46H110.234C110.146 46 110.07 45.968 110.006 45.904C109.942 45.84 109.91 45.764 109.91 45.676V45.184C109.838 45.336 109.726 45.472 109.574 45.592C109.422 45.704 109.246 45.8 109.046 45.88C108.854 45.96 108.65 46.02 108.434 46.06C108.226 46.1 108.03 46.12 107.846 46.12C107.534 46.12 107.246 46.076 106.982 45.988C106.726 45.9 106.506 45.784 106.322 45.64C106.146 45.488 106.006 45.308 105.902 45.1C105.806 44.892 105.758 44.668 105.758 44.428ZM107.966 45.088C108.254 45.088 108.518 45.044 108.758 44.956C108.998 44.868 109.202 44.748 109.37 44.596C109.546 44.436 109.678 44.248 109.766 44.032C109.862 43.816 109.91 43.576 109.91 43.312V43.012L108.494 43.24C107.99 43.32 107.59 43.448 107.294 43.624C106.998 43.8 106.85 44.028 106.85 44.308C106.85 44.396 106.87 44.484 106.91 44.572C106.95 44.66 107.014 44.744 107.102 44.824C107.19 44.904 107.302 44.968 107.438 45.016C107.582 45.064 107.758 45.088 107.966 45.088ZM115.525 46.12C115.029 46.12 114.633 46.036 114.337 45.868C114.041 45.692 113.817 45.504 113.665 45.304V47.956C113.665 48.044 113.633 48.12 113.569 48.184C113.505 48.248 113.429 48.28 113.341 48.28H112.897C112.809 48.28 112.733 48.248 112.669 48.184C112.605 48.12 112.573 48.044 112.573 47.956V40.084C112.573 39.996 112.605 39.92 112.669 39.856C112.733 39.792 112.809 39.76 112.897 39.76H113.341C113.429 39.76 113.505 39.792 113.569 39.856C113.633 39.92 113.665 39.996 113.665 40.084V40.456C113.825 40.24 114.053 40.052 114.349 39.892C114.645 39.724 115.037 39.64 115.525 39.64C115.901 39.64 116.249 39.708 116.569 39.844C116.897 39.972 117.181 40.16 117.421 40.408C117.661 40.656 117.853 40.956 117.997 41.308C118.141 41.66 118.225 42.056 118.249 42.496C118.257 42.616 118.261 42.748 118.261 42.892C118.261 43.028 118.257 43.156 118.249 43.276C118.225 43.716 118.141 44.112 117.997 44.464C117.853 44.816 117.661 45.116 117.421 45.364C117.181 45.604 116.897 45.792 116.569 45.928C116.249 46.056 115.901 46.12 115.525 46.12ZM113.665 42.364C113.657 42.484 113.653 42.644 113.653 42.844C113.653 43.036 113.657 43.192 113.665 43.312C113.689 43.88 113.857 44.32 114.169 44.632C114.489 44.936 114.901 45.088 115.405 45.088C115.933 45.088 116.349 44.92 116.653 44.584C116.957 44.248 117.125 43.792 117.157 43.216C117.165 42.992 117.165 42.768 117.157 42.544C117.125 41.968 116.957 41.512 116.653 41.176C116.349 40.84 115.933 40.672 115.405 40.672C114.909 40.672 114.501 40.824 114.181 41.128C113.861 41.432 113.689 41.844 113.665 42.364ZM119.277 42.28C119.309 41.912 119.397 41.568 119.541 41.248C119.685 40.928 119.873 40.648 120.105 40.408C120.337 40.168 120.613 39.98 120.933 39.844C121.261 39.708 121.625 39.64 122.025 39.64C122.457 39.64 122.841 39.712 123.177 39.856C123.521 39.992 123.813 40.192 124.053 40.456C124.293 40.72 124.477 41.04 124.605 41.416C124.733 41.792 124.797 42.212 124.797 42.676V43C124.797 43.088 124.765 43.164 124.701 43.228C124.637 43.292 124.561 43.324 124.473 43.324H120.345V43.396C120.361 43.94 120.525 44.36 120.837 44.656C121.157 44.944 121.553 45.088 122.025 45.088C122.465 45.088 122.793 45.028 123.009 44.908C123.233 44.78 123.413 44.64 123.549 44.488C123.613 44.424 123.669 44.38 123.717 44.356C123.765 44.332 123.837 44.32 123.933 44.32H124.293C124.381 44.32 124.461 44.352 124.533 44.416C124.605 44.48 124.633 44.556 124.617 44.644C124.593 44.788 124.525 44.948 124.413 45.124C124.301 45.292 124.137 45.452 123.921 45.604C123.713 45.748 123.449 45.872 123.129 45.976C122.817 46.072 122.449 46.12 122.025 46.12C121.625 46.12 121.265 46.052 120.945 45.916C120.625 45.772 120.345 45.58 120.105 45.34C119.873 45.092 119.685 44.804 119.541 44.476C119.397 44.14 119.309 43.776 119.277 43.384C119.237 43.016 119.237 42.648 119.277 42.28ZM120.345 42.316H123.717V42.28C123.717 41.792 123.561 41.404 123.249 41.116C122.945 40.82 122.537 40.672 122.025 40.672C121.793 40.672 121.577 40.712 121.377 40.792C121.177 40.864 121.001 40.972 120.849 41.116C120.697 41.252 120.577 41.42 120.489 41.62C120.401 41.82 120.353 42.04 120.345 42.28V42.316ZM131.309 39.76C131.397 39.76 131.473 39.792 131.537 39.856C131.601 39.92 131.633 39.996 131.633 40.084V45.676C131.633 45.764 131.601 45.84 131.537 45.904C131.473 45.968 131.397 46 131.309 46H130.865C130.777 46 130.701 45.968 130.637 45.904C130.573 45.84 130.541 45.764 130.541 45.676V43.336H127.157V45.676C127.157 45.764 127.125 45.84 127.061 45.904C126.997 45.968 126.921 46 126.833 46H126.389C126.301 46 126.225 45.972 126.161 45.916C126.097 45.852 126.065 45.772 126.065 45.676V40.084C126.065 39.996 126.097 39.92 126.161 39.856C126.225 39.792 126.301 39.76 126.389 39.76H126.833C126.921 39.76 126.997 39.792 127.061 39.856C127.125 39.92 127.157 39.996 127.157 40.084V42.304H130.541V40.084C130.541 39.996 130.573 39.92 130.637 39.856C130.701 39.792 130.777 39.76 130.865 39.76H131.309ZM133.808 40.084C133.808 39.996 133.836 39.92 133.892 39.856C133.956 39.792 134.032 39.76 134.12 39.76H137.468C137.556 39.76 137.632 39.792 137.696 39.856C137.76 39.92 137.792 39.996 137.792 40.084V44.968H138.02C138.108 44.968 138.184 45 138.248 45.064C138.312 45.128 138.344 45.204 138.344 45.292V46.996C138.344 47.084 138.312 47.16 138.248 47.224C138.184 47.288 138.108 47.32 138.02 47.32H137.576C137.488 47.32 137.412 47.288 137.348 47.224C137.284 47.16 137.252 47.084 137.252 46.996V46H133.7V46.996C133.7 47.084 133.668 47.16 133.604 47.224C133.54 47.288 133.464 47.32 133.376 47.32H132.932C132.844 47.32 132.768 47.288 132.704 47.224C132.64 47.16 132.608 47.084 132.608 46.996V45.292C132.608 45.204 132.64 45.128 132.704 45.064C132.768 45 132.844 44.968 132.932 44.968H133.208C133.336 44.968 133.44 44.936 133.52 44.872C133.6 44.808 133.66 44.72 133.7 44.608C133.748 44.496 133.776 44.372 133.784 44.236C133.8 44.092 133.808 43.94 133.808 43.78V40.084ZM136.7 40.792H134.9V43.972C134.9 44.412 134.824 44.744 134.672 44.968H136.7V40.792ZM139.182 44.428C139.182 44.108 139.246 43.828 139.374 43.588C139.502 43.348 139.678 43.144 139.902 42.976C140.126 42.808 140.386 42.672 140.682 42.568C140.986 42.464 141.306 42.384 141.642 42.328L143.334 42.052V41.896C143.334 41.488 143.198 41.184 142.926 40.984C142.662 40.776 142.33 40.672 141.93 40.672C141.578 40.672 141.31 40.736 141.126 40.864C140.95 40.992 140.798 41.144 140.67 41.32C140.622 41.384 140.57 41.428 140.514 41.452C140.458 41.476 140.382 41.488 140.286 41.488H139.926C139.838 41.488 139.758 41.456 139.686 41.392C139.622 41.328 139.594 41.252 139.602 41.164C139.618 40.988 139.686 40.808 139.806 40.624C139.934 40.44 140.102 40.276 140.31 40.132C140.526 39.988 140.77 39.872 141.042 39.784C141.322 39.688 141.618 39.64 141.93 39.64C142.29 39.64 142.622 39.692 142.926 39.796C143.238 39.9 143.502 40.052 143.718 40.252C143.942 40.452 144.114 40.7 144.234 40.996C144.362 41.292 144.426 41.632 144.426 42.016V45.676C144.426 45.764 144.394 45.84 144.33 45.904C144.266 45.968 144.19 46 144.102 46H143.658C143.57 46 143.494 45.968 143.43 45.904C143.366 45.84 143.334 45.764 143.334 45.676V45.184C143.262 45.336 143.15 45.472 142.998 45.592C142.846 45.704 142.67 45.8 142.47 45.88C142.278 45.96 142.074 46.02 141.858 46.06C141.65 46.1 141.454 46.12 141.27 46.12C140.958 46.12 140.67 46.076 140.406 45.988C140.15 45.9 139.93 45.784 139.746 45.64C139.57 45.488 139.43 45.308 139.326 45.1C139.23 44.892 139.182 44.668 139.182 44.428ZM141.39 45.088C141.678 45.088 141.942 45.044 142.182 44.956C142.422 44.868 142.626 44.748 142.794 44.596C142.97 44.436 143.102 44.248 143.19 44.032C143.286 43.816 143.334 43.576 143.334 43.312V43.012L141.918 43.24C141.414 43.32 141.014 43.448 140.718 43.624C140.422 43.8 140.274 44.028 140.274 44.308C140.274 44.396 140.294 44.484 140.334 44.572C140.374 44.66 140.438 44.744 140.526 44.824C140.614 44.904 140.726 44.968 140.862 45.016C141.006 45.064 141.182 45.088 141.39 45.088ZM152.191 36.928C152.231 36.84 152.291 36.76 152.371 36.688C152.451 36.608 152.567 36.568 152.719 36.568H153.115C153.187 36.568 153.247 36.596 153.295 36.652C153.351 36.7 153.379 36.76 153.379 36.832C153.379 36.864 153.371 36.9 153.355 36.94L149.299 46.648C149.267 46.728 149.211 46.808 149.131 46.888C149.051 46.968 148.931 47.008 148.771 47.008H148.411C148.339 47.008 148.275 46.98 148.219 46.924C148.171 46.876 148.147 46.816 148.147 46.744C148.147 46.712 148.155 46.676 148.171 46.636L152.191 36.928ZM157.705 40.084C157.705 39.996 157.733 39.92 157.789 39.856C157.853 39.792 157.929 39.76 158.017 39.76H161.365C161.453 39.76 161.529 39.792 161.593 39.856C161.657 39.92 161.689 39.996 161.689 40.084V44.968H161.917C162.005 44.968 162.081 45 162.145 45.064C162.209 45.128 162.241 45.204 162.241 45.292V46.996C162.241 47.084 162.209 47.16 162.145 47.224C162.081 47.288 162.005 47.32 161.917 47.32H161.473C161.385 47.32 161.309 47.288 161.245 47.224C161.181 47.16 161.149 47.084 161.149 46.996V46H157.597V46.996C157.597 47.084 157.565 47.16 157.501 47.224C157.437 47.288 157.361 47.32 157.273 47.32H156.829C156.741 47.32 156.665 47.288 156.601 47.224C156.537 47.16 156.505 47.084 156.505 46.996V45.292C156.505 45.204 156.537 45.128 156.601 45.064C156.665 45 156.741 44.968 156.829 44.968H157.105C157.233 44.968 157.337 44.936 157.417 44.872C157.497 44.808 157.557 44.72 157.597 44.608C157.645 44.496 157.673 44.372 157.681 44.236C157.697 44.092 157.705 43.94 157.705 43.78V40.084ZM160.597 40.792H158.797V43.972C158.797 44.412 158.721 44.744 158.569 44.968H160.597V40.792ZM166.021 39.64C166.453 39.64 166.837 39.708 167.173 39.844C167.509 39.972 167.797 40.152 168.037 40.384C168.277 40.616 168.465 40.9 168.601 41.236C168.745 41.564 168.833 41.924 168.865 42.316C168.873 42.388 168.877 42.476 168.877 42.58C168.877 42.676 168.877 42.78 168.877 42.892C168.877 42.996 168.877 43.1 168.877 43.204C168.877 43.3 168.873 43.38 168.865 43.444C168.825 43.844 168.737 44.208 168.601 44.536C168.465 44.864 168.277 45.144 168.037 45.376C167.797 45.608 167.509 45.792 167.173 45.928C166.837 46.056 166.453 46.12 166.021 46.12C165.589 46.12 165.205 46.056 164.869 45.928C164.533 45.792 164.245 45.608 164.005 45.376C163.765 45.144 163.573 44.864 163.429 44.536C163.293 44.208 163.209 43.844 163.177 43.444C163.169 43.38 163.161 43.3 163.153 43.204C163.153 43.1 163.153 42.996 163.153 42.892C163.153 42.78 163.153 42.676 163.153 42.58C163.161 42.476 163.169 42.388 163.177 42.316C163.209 41.924 163.293 41.564 163.429 41.236C163.573 40.9 163.765 40.616 164.005 40.384C164.245 40.152 164.533 39.972 164.869 39.844C165.205 39.708 165.589 39.64 166.021 39.64ZM167.773 43.384C167.789 43.248 167.797 43.084 167.797 42.892C167.797 42.692 167.789 42.52 167.773 42.376C167.749 42.136 167.697 41.912 167.617 41.704C167.537 41.496 167.425 41.316 167.281 41.164C167.137 41.012 166.961 40.892 166.753 40.804C166.545 40.716 166.301 40.672 166.021 40.672C165.741 40.672 165.497 40.716 165.289 40.804C165.081 40.892 164.905 41.012 164.761 41.164C164.617 41.316 164.505 41.496 164.425 41.704C164.345 41.912 164.293 42.136 164.269 42.376C164.253 42.52 164.245 42.692 164.245 42.892C164.245 43.084 164.253 43.248 164.269 43.384C164.293 43.624 164.345 43.848 164.425 44.056C164.505 44.264 164.617 44.444 164.761 44.596C164.905 44.748 165.081 44.868 165.289 44.956C165.497 45.044 165.741 45.088 166.021 45.088C166.301 45.088 166.545 45.044 166.753 44.956C166.961 44.868 167.137 44.748 167.281 44.596C167.425 44.444 167.537 44.264 167.617 44.056C167.697 43.848 167.749 43.624 167.773 43.384ZM171.015 43.3C171.047 43.62 171.115 43.892 171.219 44.116C171.331 44.34 171.463 44.524 171.615 44.668C171.775 44.812 171.951 44.92 172.143 44.992C172.335 45.056 172.531 45.088 172.731 45.088C173.115 45.088 173.443 45.016 173.715 44.872C173.987 44.728 174.199 44.488 174.351 44.152C174.407 44.024 174.463 43.94 174.519 43.9C174.583 43.852 174.659 43.828 174.747 43.828H175.107C175.195 43.828 175.271 43.86 175.335 43.924C175.407 43.988 175.439 44.064 175.431 44.152C175.423 44.344 175.359 44.556 175.239 44.788C175.127 45.012 174.955 45.224 174.723 45.424C174.499 45.616 174.219 45.78 173.883 45.916C173.555 46.052 173.171 46.12 172.731 46.12C172.291 46.12 171.899 46.048 171.555 45.904C171.219 45.76 170.931 45.564 170.691 45.316C170.459 45.068 170.275 44.776 170.139 44.44C170.011 44.104 169.939 43.744 169.923 43.36C169.915 43.232 169.907 43.076 169.899 42.892C169.899 42.7 169.907 42.536 169.923 42.4C169.955 42.016 170.035 41.656 170.163 41.32C170.299 40.984 170.483 40.692 170.715 40.444C170.947 40.196 171.231 40 171.567 39.856C171.903 39.712 172.291 39.64 172.731 39.64C173.171 39.64 173.555 39.708 173.883 39.844C174.219 39.98 174.499 40.148 174.723 40.348C174.955 40.54 175.127 40.752 175.239 40.984C175.359 41.208 175.423 41.416 175.431 41.608C175.439 41.696 175.407 41.772 175.335 41.836C175.271 41.9 175.195 41.932 175.107 41.932H174.747C174.659 41.932 174.583 41.912 174.519 41.872C174.463 41.824 174.407 41.736 174.351 41.608C174.199 41.272 173.987 41.032 173.715 40.888C173.443 40.744 173.115 40.672 172.731 40.672C172.531 40.672 172.331 40.708 172.131 40.78C171.939 40.844 171.763 40.948 171.603 41.092C171.451 41.236 171.319 41.42 171.207 41.644C171.103 41.868 171.039 42.14 171.015 42.46C170.991 42.756 170.991 43.036 171.015 43.3ZM181.535 39.76C181.623 39.76 181.699 39.792 181.763 39.856C181.827 39.92 181.859 39.996 181.859 40.084V40.468C181.859 40.556 181.827 40.632 181.763 40.696C181.699 40.76 181.623 40.792 181.535 40.792H179.459V45.676C179.459 45.764 179.427 45.84 179.363 45.904C179.299 45.968 179.223 46 179.135 46H178.691C178.603 46 178.527 45.968 178.463 45.904C178.399 45.84 178.367 45.764 178.367 45.676V40.792H176.291C176.203 40.792 176.127 40.76 176.063 40.696C175.999 40.632 175.967 40.556 175.967 40.468V40.084C175.967 39.996 175.999 39.92 176.063 39.856C176.127 39.792 176.203 39.76 176.291 39.76H181.535ZM182.227 44.428C182.227 44.108 182.291 43.828 182.419 43.588C182.547 43.348 182.723 43.144 182.947 42.976C183.171 42.808 183.431 42.672 183.727 42.568C184.031 42.464 184.351 42.384 184.687 42.328L186.379 42.052V41.896C186.379 41.488 186.243 41.184 185.971 40.984C185.707 40.776 185.375 40.672 184.975 40.672C184.623 40.672 184.355 40.736 184.171 40.864C183.995 40.992 183.843 41.144 183.715 41.32C183.667 41.384 183.615 41.428 183.559 41.452C183.503 41.476 183.427 41.488 183.331 41.488H182.971C182.883 41.488 182.803 41.456 182.731 41.392C182.667 41.328 182.639 41.252 182.647 41.164C182.663 40.988 182.731 40.808 182.851 40.624C182.979 40.44 183.147 40.276 183.355 40.132C183.571 39.988 183.815 39.872 184.087 39.784C184.367 39.688 184.663 39.64 184.975 39.64C185.335 39.64 185.667 39.692 185.971 39.796C186.283 39.9 186.547 40.052 186.763 40.252C186.987 40.452 187.159 40.7 187.279 40.996C187.407 41.292 187.471 41.632 187.471 42.016V45.676C187.471 45.764 187.439 45.84 187.375 45.904C187.311 45.968 187.235 46 187.147 46H186.703C186.615 46 186.539 45.968 186.475 45.904C186.411 45.84 186.379 45.764 186.379 45.676V45.184C186.307 45.336 186.195 45.472 186.043 45.592C185.891 45.704 185.715 45.8 185.515 45.88C185.323 45.96 185.119 46.02 184.903 46.06C184.695 46.1 184.499 46.12 184.315 46.12C184.003 46.12 183.715 46.076 183.451 45.988C183.195 45.9 182.975 45.784 182.791 45.64C182.615 45.488 182.475 45.308 182.371 45.1C182.275 44.892 182.227 44.668 182.227 44.428ZM184.435 45.088C184.723 45.088 184.987 45.044 185.227 44.956C185.467 44.868 185.671 44.748 185.839 44.596C186.015 44.436 186.147 44.248 186.235 44.032C186.331 43.816 186.379 43.576 186.379 43.312V43.012L184.963 43.24C184.459 43.32 184.059 43.448 183.763 43.624C183.467 43.8 183.319 44.028 183.319 44.308C183.319 44.396 183.339 44.484 183.379 44.572C183.419 44.66 183.483 44.744 183.571 44.824C183.659 44.904 183.771 44.968 183.907 45.016C184.051 45.064 184.227 45.088 184.435 45.088ZM190.134 43.372V44.956H192.162C192.562 44.956 192.882 44.9 193.122 44.788C193.362 44.668 193.482 44.456 193.482 44.152C193.482 43.848 193.366 43.644 193.134 43.54C192.91 43.428 192.598 43.372 192.198 43.372H190.134ZM190.134 40.804V42.328H192.102C192.502 42.328 192.81 42.276 193.026 42.172C193.242 42.06 193.35 41.852 193.35 41.548C193.35 41.244 193.23 41.044 192.99 40.948C192.758 40.852 192.442 40.804 192.042 40.804H190.134ZM189.282 46C189.218 46 189.162 45.976 189.114 45.928C189.066 45.88 189.042 45.824 189.042 45.76V40C189.042 39.936 189.066 39.88 189.114 39.832C189.162 39.784 189.218 39.76 189.282 39.76H192.258C192.946 39.76 193.482 39.912 193.866 40.216C194.25 40.52 194.442 40.924 194.442 41.428C194.442 41.612 194.418 41.772 194.37 41.908C194.33 42.044 194.274 42.164 194.202 42.268C194.138 42.372 194.062 42.464 193.974 42.544C193.894 42.624 193.81 42.696 193.722 42.76C194.05 42.944 194.274 43.156 194.394 43.396C194.514 43.636 194.574 43.912 194.574 44.224C194.574 44.8 194.374 45.24 193.974 45.544C193.582 45.848 193.054 46 192.39 46H189.282ZM197.008 42.16L199.504 39.964C199.552 39.924 199.612 39.88 199.684 39.832C199.764 39.784 199.86 39.76 199.972 39.76H200.548C200.628 39.76 200.696 39.788 200.752 39.844C200.808 39.9 200.836 39.968 200.836 40.048C200.836 40.088 200.828 40.128 200.812 40.168C200.804 40.2 200.768 40.24 200.704 40.288L197.8 42.832L200.992 45.484C201.072 45.548 201.112 45.624 201.112 45.712C201.112 45.792 201.084 45.86 201.028 45.916C200.972 45.972 200.904 46 200.824 46H200.2C200.08 46 199.976 45.976 199.888 45.928C199.808 45.88 199.748 45.836 199.708 45.796L197.008 43.552V45.676C197.008 45.764 196.976 45.84 196.912 45.904C196.848 45.968 196.772 46 196.684 46H196.24C196.152 46 196.076 45.968 196.012 45.904C195.948 45.84 195.916 45.764 195.916 45.676V40.084C195.916 39.996 195.948 39.92 196.012 39.856C196.076 39.792 196.152 39.76 196.24 39.76H196.684C196.772 39.76 196.848 39.792 196.912 39.856C196.976 39.92 197.008 39.996 197.008 40.084V42.16ZM201.468 44.428C201.468 44.108 201.532 43.828 201.66 43.588C201.788 43.348 201.964 43.144 202.188 42.976C202.412 42.808 202.672 42.672 202.968 42.568C203.272 42.464 203.592 42.384 203.928 42.328L205.62 42.052V41.896C205.62 41.488 205.484 41.184 205.212 40.984C204.948 40.776 204.616 40.672 204.216 40.672C203.864 40.672 203.596 40.736 203.412 40.864C203.236 40.992 203.084 41.144 202.956 41.32C202.908 41.384 202.856 41.428 202.8 41.452C202.744 41.476 202.668 41.488 202.572 41.488H202.212C202.124 41.488 202.044 41.456 201.972 41.392C201.908 41.328 201.88 41.252 201.888 41.164C201.904 40.988 201.972 40.808 202.092 40.624C202.22 40.44 202.388 40.276 202.596 40.132C202.812 39.988 203.056 39.872 203.328 39.784C203.608 39.688 203.904 39.64 204.216 39.64C204.576 39.64 204.908 39.692 205.212 39.796C205.524 39.9 205.788 40.052 206.004 40.252C206.228 40.452 206.4 40.7 206.52 40.996C206.648 41.292 206.712 41.632 206.712 42.016V45.676C206.712 45.764 206.68 45.84 206.616 45.904C206.552 45.968 206.476 46 206.388 46H205.944C205.856 46 205.78 45.968 205.716 45.904C205.652 45.84 205.62 45.764 205.62 45.676V45.184C205.548 45.336 205.436 45.472 205.284 45.592C205.132 45.704 204.956 45.8 204.756 45.88C204.564 45.96 204.36 46.02 204.144 46.06C203.936 46.1 203.74 46.12 203.556 46.12C203.244 46.12 202.956 46.076 202.692 45.988C202.436 45.9 202.216 45.784 202.032 45.64C201.856 45.488 201.716 45.308 201.612 45.1C201.516 44.892 201.468 44.668 201.468 44.428ZM203.676 45.088C203.964 45.088 204.228 45.044 204.468 44.956C204.708 44.868 204.912 44.748 205.08 44.596C205.256 44.436 205.388 44.248 205.476 44.032C205.572 43.816 205.62 43.576 205.62 43.312V43.012L204.204 43.24C203.7 43.32 203.3 43.448 203.004 43.624C202.708 43.8 202.56 44.028 202.56 44.308C202.56 44.396 202.58 44.484 202.62 44.572C202.66 44.66 202.724 44.744 202.812 44.824C202.9 44.904 203.012 44.968 203.148 45.016C203.292 45.064 203.468 45.088 203.676 45.088Z" fill="black"/>
<path d="M77.8916 13.7973C77.9106 14.6507 77.9201 15.3997 77.9201 16.0445C77.9201 16.6892 77.9106 17.4382 77.8916 18.2916C77.8727 19.4862 77.6641 20.5671 77.2658 21.5342C76.8676 22.4824 76.3177 23.2883 75.6161 23.952C74.9144 24.6157 74.0801 25.1277 73.1129 25.488C72.1458 25.8293 71.0744 26 69.8987 26H63.2143C63.0057 26 62.8255 25.9242 62.6738 25.7725C62.5221 25.6208 62.4463 25.4406 62.4463 25.232V6.8569C62.4463 6.64831 62.5221 6.46816 62.6738 6.31646C62.8255 6.16475 63.0057 6.0889 63.2143 6.0889H69.7281C70.9038 6.0889 71.9847 6.26905 72.9707 6.62935C73.9758 6.97068 74.8386 7.4732 75.5592 8.1369C76.2798 8.80061 76.8392 9.61601 77.2374 10.5831C77.6546 11.5313 77.8727 12.6027 77.8916 13.7973ZM75.1894 13.9396C75.1704 13.2569 75.0567 12.6027 74.8481 11.9769C74.6584 11.3322 74.3455 10.7633 73.9094 10.2702C73.4732 9.7772 72.9044 9.38846 72.2027 9.10401C71.5011 8.80061 70.6383 8.6489 69.6143 8.6489H65.1485V23.44H69.7565C70.7805 23.44 71.6338 23.2978 72.3165 23.0133C73.0181 22.7099 73.5775 22.3117 73.9947 21.8187C74.4119 21.3256 74.7058 20.7662 74.8765 20.1405C75.0661 19.4957 75.1704 18.832 75.1894 18.1493C75.1894 17.7322 75.1894 17.3624 75.1894 17.04C75.2084 16.6987 75.2178 16.3763 75.2178 16.0729C75.2178 15.7505 75.2084 15.4282 75.1894 15.1058C75.1894 14.7645 75.1894 14.3757 75.1894 13.9396ZM87.7185 5.80446C88.8752 5.80446 89.8898 5.98461 90.7621 6.3449C91.6533 6.7052 92.4024 7.15083 93.0092 7.68179C93.6349 8.19379 94.109 8.7532 94.4314 9.36001C94.7538 9.94787 94.9244 10.4788 94.9434 10.9529C94.9624 11.1236 94.9055 11.2753 94.7727 11.408C94.64 11.5218 94.4883 11.5787 94.3176 11.5787H93.1514C92.9428 11.5787 92.7721 11.5408 92.6394 11.4649C92.5256 11.389 92.4024 11.2184 92.2696 10.9529C92.1748 10.7633 92.0136 10.5262 91.7861 10.2418C91.5775 9.93838 91.2835 9.65394 90.9043 9.38846C90.544 9.10401 90.0984 8.86698 89.5674 8.67735C89.0364 8.46875 88.4201 8.36446 87.7185 8.36446C87.1875 8.36446 86.6755 8.43083 86.1825 8.56357C85.7084 8.67735 85.2818 8.85749 84.9025 9.10401C84.5232 9.35053 84.2198 9.66342 83.9923 10.0427C83.7647 10.403 83.6509 10.8296 83.6509 11.3227C83.6509 11.8157 83.7552 12.2329 83.9638 12.5742C84.1914 12.9156 84.5422 13.2285 85.0163 13.5129C85.5093 13.7784 86.1256 14.0249 86.8652 14.2525C87.6047 14.48 88.5055 14.736 89.5674 15.0205C90.6483 15.3049 91.5585 15.6178 92.2981 15.9591C93.0566 16.3005 93.6729 16.6892 94.1469 17.1253C94.621 17.5425 94.9624 18.0356 95.1709 18.6045C95.3985 19.1544 95.5123 19.7802 95.5123 20.4818C95.5123 21.3351 95.3227 22.1221 94.9434 22.8427C94.5831 23.5443 94.0711 24.1511 93.4074 24.6631C92.7437 25.1751 91.9378 25.5733 90.9896 25.8578C90.0604 26.1422 89.0175 26.2845 87.8607 26.2845C86.7609 26.2845 85.7464 26.1233 84.8172 25.8009C83.888 25.4785 83.0915 25.0613 82.4278 24.5493C81.7641 24.0373 81.2332 23.4685 80.8349 22.8427C80.4557 22.2169 80.2566 21.6006 80.2376 20.9938C80.2376 20.8231 80.2945 20.6809 80.4083 20.5671C80.541 20.4344 80.6927 20.368 80.8634 20.368H82.0296C82.2192 20.368 82.3804 20.4059 82.5132 20.4818C82.6649 20.5576 82.7976 20.7283 82.9114 20.9938C83.0252 21.2593 83.1958 21.5532 83.4234 21.8756C83.6699 22.179 83.9923 22.4729 84.3905 22.7573C84.7887 23.0228 85.2723 23.2504 85.8412 23.44C86.4101 23.6296 87.0832 23.7245 87.8607 23.7245C88.5244 23.7245 89.1502 23.6486 89.7381 23.4969C90.3449 23.3452 90.8758 23.1271 91.3309 22.8427C91.7861 22.5582 92.1464 22.2169 92.4118 21.8187C92.6773 21.4205 92.8101 20.9748 92.8101 20.4818C92.8101 19.9888 92.6584 19.5716 92.3549 19.2302C92.0515 18.8699 91.6154 18.5476 91.0465 18.2631C90.4776 17.9787 89.776 17.7227 88.9416 17.4951C88.1262 17.2486 87.197 16.9926 86.1541 16.7271C85.2059 16.4806 84.4 16.1867 83.7363 15.8453C83.0726 15.4851 82.5321 15.0773 82.1149 14.6222C81.6978 14.1671 81.3944 13.6646 81.2047 13.1147C81.0341 12.5648 80.9487 11.9674 80.9487 11.3227C80.9487 10.6211 81.0909 9.93838 81.3754 9.27468C81.6598 8.61098 82.077 8.02312 82.6269 7.51112C83.1958 6.99912 83.8975 6.59142 84.7318 6.28801C85.5852 5.96564 86.5807 5.80446 87.7185 5.80446ZM102.941 15.6178L112.641 24.8622C112.754 24.976 112.83 25.0803 112.868 25.1751C112.906 25.251 112.925 25.3173 112.925 25.3742C112.925 25.5449 112.859 25.6966 112.726 25.8293C112.612 25.9431 112.47 26 112.299 26H110.536C110.27 26 110.052 25.9526 109.881 25.8578C109.711 25.744 109.587 25.6492 109.512 25.5733L101.462 17.8933V25.232C101.462 25.4406 101.386 25.6208 101.234 25.7725C101.083 25.9242 100.902 26 100.694 26H99.5276C99.319 26 99.1389 25.9242 98.9872 25.7725C98.8355 25.6208 98.7596 25.4406 98.7596 25.232V6.8569C98.7596 6.64831 98.8355 6.46816 98.9872 6.31646C99.1389 6.16475 99.319 6.0889 99.5276 6.0889H100.694C100.902 6.0889 101.083 6.16475 101.234 6.31646C101.386 6.46816 101.462 6.64831 101.462 6.8569V13.4845L109.057 6.51557C109.132 6.43972 109.256 6.35438 109.426 6.25957C109.597 6.14579 109.815 6.0889 110.081 6.0889H111.73C111.901 6.0889 112.043 6.15527 112.157 6.28801C112.29 6.40179 112.356 6.54401 112.356 6.71468C112.356 6.77157 112.337 6.84742 112.299 6.94224C112.261 7.01809 112.185 7.1129 112.072 7.22668L102.941 15.6178ZM123.211 4.49601C123.306 4.28742 123.448 4.09779 123.638 3.92712C123.828 3.73749 124.103 3.64268 124.463 3.64268H125.402C125.572 3.64268 125.715 3.70905 125.828 3.84179C125.961 3.95557 126.027 4.09779 126.027 4.26846C126.027 4.34431 126.008 4.42964 125.971 4.52446L116.356 27.536C116.28 27.7256 116.148 27.9153 115.958 28.1049C115.768 28.2945 115.484 28.3893 115.105 28.3893H114.251C114.081 28.3893 113.929 28.323 113.796 28.1902C113.683 28.0765 113.626 27.9342 113.626 27.7636C113.626 27.6877 113.645 27.6024 113.683 27.5076L123.211 4.49601ZM134.466 5.80446C135.623 5.80446 136.638 5.98461 137.51 6.3449C138.401 6.7052 139.15 7.15083 139.757 7.68179C140.383 8.19379 140.857 8.7532 141.179 9.36001C141.502 9.94787 141.672 10.4788 141.691 10.9529C141.71 11.1236 141.653 11.2753 141.521 11.408C141.388 11.5218 141.236 11.5787 141.065 11.5787H139.899C139.691 11.5787 139.52 11.5408 139.387 11.4649C139.273 11.389 139.15 11.2184 139.017 10.9529C138.923 10.7633 138.761 10.5262 138.534 10.2418C138.325 9.93838 138.031 9.65394 137.652 9.38846C137.292 9.10401 136.846 8.86698 136.315 8.67735C135.784 8.46875 135.168 8.36446 134.466 8.36446C133.935 8.36446 133.423 8.43083 132.93 8.56357C132.456 8.67735 132.03 8.85749 131.65 9.10401C131.271 9.35053 130.968 9.66342 130.74 10.0427C130.513 10.403 130.399 10.8296 130.399 11.3227C130.399 11.8157 130.503 12.2329 130.712 12.5742C130.939 12.9156 131.29 13.2285 131.764 13.5129C132.257 13.7784 132.873 14.0249 133.613 14.2525C134.353 14.48 135.253 14.736 136.315 15.0205C137.396 15.3049 138.306 15.6178 139.046 15.9591C139.804 16.3005 140.421 16.6892 140.895 17.1253C141.369 17.5425 141.71 18.0356 141.919 18.6045C142.146 19.1544 142.26 19.7802 142.26 20.4818C142.26 21.3351 142.07 22.1221 141.691 22.8427C141.331 23.5443 140.819 24.1511 140.155 24.6631C139.491 25.1751 138.686 25.5733 137.737 25.8578C136.808 26.1422 135.765 26.2845 134.609 26.2845C133.509 26.2845 132.494 26.1233 131.565 25.8009C130.636 25.4785 129.839 25.0613 129.176 24.5493C128.512 24.0373 127.981 23.4685 127.583 22.8427C127.203 22.2169 127.004 21.6006 126.985 20.9938C126.985 20.8231 127.042 20.6809 127.156 20.5671C127.289 20.4344 127.441 20.368 127.611 20.368H128.777C128.967 20.368 129.128 20.4059 129.261 20.4818C129.413 20.5576 129.545 20.7283 129.659 20.9938C129.773 21.2593 129.944 21.5532 130.171 21.8756C130.418 22.179 130.74 22.4729 131.138 22.7573C131.537 23.0228 132.02 23.2504 132.589 23.44C133.158 23.6296 133.831 23.7245 134.609 23.7245C135.272 23.7245 135.898 23.6486 136.486 23.4969C137.093 23.3452 137.624 23.1271 138.079 22.8427C138.534 22.5582 138.894 22.2169 139.16 21.8187C139.425 21.4205 139.558 20.9748 139.558 20.4818C139.558 19.9888 139.406 19.5716 139.103 19.2302C138.799 18.8699 138.363 18.5476 137.794 18.2631C137.225 17.9787 136.524 17.7227 135.689 17.4951C134.874 17.2486 133.945 16.9926 132.902 16.7271C131.954 16.4806 131.148 16.1867 130.484 15.8453C129.82 15.4851 129.28 15.0773 128.863 14.6222C128.446 14.1671 128.142 13.6646 127.953 13.1147C127.782 12.5648 127.697 11.9674 127.697 11.3227C127.697 10.6211 127.839 9.93838 128.123 9.27468C128.408 8.61098 128.825 8.02312 129.375 7.51112C129.944 6.99912 130.645 6.59142 131.48 6.28801C132.333 5.96564 133.329 5.80446 134.466 5.80446ZM157.574 6.0889C157.782 6.0889 157.963 6.16475 158.114 6.31646C158.266 6.46816 158.342 6.64831 158.342 6.8569V7.8809C158.342 8.08949 158.266 8.26964 158.114 8.42135C157.963 8.57305 157.782 8.6489 157.574 8.6489H152.255V25.232C152.255 25.4406 152.179 25.6208 152.027 25.7725C151.875 25.9242 151.695 26 151.487 26H150.321C150.112 26 149.932 25.9242 149.78 25.7725C149.628 25.6208 149.553 25.4406 149.553 25.232V8.6489H144.233C144.025 8.6489 143.845 8.57305 143.693 8.42135C143.541 8.26964 143.465 8.08949 143.465 7.8809V6.8569C143.465 6.64831 143.541 6.46816 143.693 6.31646C143.845 6.16475 144.025 6.0889 144.233 6.0889H157.574ZM168.677 6.0889C169.606 6.0889 170.478 6.20268 171.294 6.43024C172.128 6.65779 172.858 7.00861 173.484 7.48268C174.11 7.95675 174.603 8.56357 174.963 9.30312C175.342 10.0427 175.532 10.9339 175.532 11.9769C175.532 13.5129 175.143 14.736 174.366 15.6462C173.607 16.5565 172.631 17.2012 171.436 17.5805L175.731 25.0613C175.788 25.1751 175.816 25.2794 175.816 25.3742C175.816 25.5449 175.75 25.6966 175.617 25.8293C175.503 25.9431 175.361 26 175.191 26H173.967C173.588 26 173.304 25.9052 173.114 25.7156C172.943 25.5259 172.82 25.3648 172.744 25.232L168.62 17.9787H163.727V25.232C163.727 25.4406 163.652 25.6208 163.5 25.7725C163.348 25.9242 163.168 26 162.959 26H161.793C161.585 26 161.404 25.9242 161.253 25.7725C161.101 25.6208 161.025 25.4406 161.025 25.232V6.8569C161.025 6.64831 161.101 6.46816 161.253 6.31646C161.404 6.16475 161.585 6.0889 161.793 6.0889H168.677ZM163.727 15.4187H168.535C169.9 15.4187 170.952 15.1532 171.692 14.6222C172.45 14.0723 172.83 13.1905 172.83 11.9769C172.83 10.7633 172.45 9.90994 171.692 9.4169C170.952 8.9049 169.9 8.6489 168.535 8.6489H163.727V15.4187ZM178.387 13.5129C178.406 12.451 178.586 11.4554 178.927 10.5262C179.287 9.57809 179.799 8.76268 180.463 8.08001C181.127 7.37838 181.942 6.82846 182.909 6.43024C183.877 6.01305 184.986 5.80446 186.237 5.80446C187.489 5.80446 188.598 6.01305 189.565 6.43024C190.533 6.82846 191.348 7.37838 192.012 8.08001C192.675 8.76268 193.178 9.57809 193.519 10.5262C193.879 11.4554 194.069 12.451 194.088 13.5129C194.145 15.2006 194.145 16.8883 194.088 18.576C194.05 19.6379 193.851 20.643 193.491 21.5911C193.149 22.5203 192.647 23.3357 191.983 24.0373C191.319 24.739 190.504 25.2889 189.537 25.6871C188.589 26.0853 187.489 26.2845 186.237 26.2845C184.986 26.2845 183.877 26.0853 182.909 25.6871C181.961 25.2889 181.155 24.739 180.492 24.0373C179.828 23.3357 179.316 22.5203 178.956 21.5911C178.614 20.643 178.425 19.6379 178.387 18.576C178.33 16.8883 178.33 15.2006 178.387 13.5129ZM191.386 13.6551C191.348 12.7639 191.196 11.9864 190.931 11.3227C190.684 10.659 190.333 10.1091 189.878 9.6729C189.423 9.23675 188.883 8.91438 188.257 8.70579C187.65 8.47824 186.977 8.36446 186.237 8.36446C185.498 8.36446 184.815 8.47824 184.189 8.70579C183.583 8.91438 183.052 9.23675 182.597 9.6729C182.141 10.1091 181.781 10.659 181.516 11.3227C181.25 11.9864 181.108 12.7639 181.089 13.6551C181.051 14.5085 181.032 15.3049 181.032 16.0445C181.032 16.784 181.051 17.5805 181.089 18.4338C181.108 19.3251 181.25 20.1025 181.516 20.7662C181.781 21.4299 182.141 21.9799 182.597 22.416C183.052 22.8522 183.583 23.184 184.189 23.4116C184.815 23.6202 185.498 23.7245 186.237 23.7245C186.977 23.7245 187.65 23.6202 188.257 23.4116C188.883 23.184 189.423 22.8522 189.878 22.416C190.333 21.9799 190.684 21.4299 190.931 20.7662C191.196 20.1025 191.348 19.3251 191.386 18.4338C191.424 17.5805 191.443 16.784 191.443 16.0445C191.443 15.3049 191.424 14.5085 191.386 13.6551ZM204.972 25.232C204.972 25.4406 204.896 25.6208 204.744 25.7725C204.592 25.9242 204.412 26 204.204 26H203.037C202.829 26 202.649 25.9242 202.497 25.7725C202.345 25.6208 202.269 25.4406 202.269 25.232V18.576L195.471 7.1129C195.376 6.94224 195.329 6.80949 195.329 6.71468C195.329 6.54401 195.386 6.40179 195.5 6.28801C195.632 6.15527 195.784 6.0889 195.955 6.0889H197.178C197.557 6.0889 197.823 6.16475 197.974 6.31646C198.145 6.46816 198.278 6.62935 198.373 6.80001L203.606 15.8453L208.869 6.80001C208.963 6.62935 209.087 6.46816 209.238 6.31646C209.409 6.16475 209.684 6.0889 210.063 6.0889H211.286C211.457 6.0889 211.599 6.15527 211.713 6.28801C211.846 6.40179 211.912 6.54401 211.912 6.71468C211.912 6.80949 211.865 6.94224 211.77 7.1129L204.972 18.576V25.232Z" fill="black"/>
</svg>
